<?xml version="1.0"?>
<svg xmlns="http://www.w3.org/2000/svg" xmlns:xlink="http://www.w3.org/1999/xlink" xmlns:svgjs="http://svgjs.com/svgjs" version="1.1" width="512" height="512" x="0" y="0" viewBox="0 0 512.005 512.005" style="enable-background:new 0 0 512 512" xml:space="preserve"><g>
<g xmlns="http://www.w3.org/2000/svg">
	<g>
		<path d="M261.925,55.035V27.714h36.128V9.65h-90.319v18.064h36.128v27.321c-110.37,4.751-198.702,95.991-198.702,207.508    c0,114.542,93.191,207.734,207.734,207.734s207.734-93.191,207.734-207.734C460.627,151.026,372.295,59.786,261.925,55.035z     M252.893,452.213c-104.589,0-189.67-85.08-189.67-189.67s85.08-189.67,189.67-189.67s189.67,85.08,189.67,189.67    S357.482,452.213,252.893,452.213z" fill="#fe5634" data-original="#000000" style=""/>
	</g>
</g>
<g xmlns="http://www.w3.org/2000/svg">
	<g>
		<path d="M243.861,163.192v95.612l-45.042,45.042l12.771,12.771l47.688-47.688c1.698-1.689,2.646-3.992,2.646-6.386v-99.351    H243.861z" fill="#fe5634" data-original="#000000" style=""/>
	</g>
</g>
<g xmlns="http://www.w3.org/2000/svg">
	<g>
		<rect x="243.861" y="90.937" width="18.064" height="27.096" fill="#fe5634" data-original="#000000" style=""/>
	</g>
</g>
<g xmlns="http://www.w3.org/2000/svg">
	<g>
		<polygon points="173.286,106.599 165.464,111.114 157.643,115.63 173.539,143.16 189.182,134.128   " fill="#fe5634" data-original="#000000" style=""/>
	</g>
</g>
<g xmlns="http://www.w3.org/2000/svg">
	<g>
		
			<rect x="106.201" y="167.17" transform="matrix(0.5001 -0.866 0.866 0.5001 -100.9249 191.3067)" width="18.064" height="31.793" fill="#fe5634" data-original="#000000" style=""/>
	</g>
</g>
<g xmlns="http://www.w3.org/2000/svg">
	<g>
		<rect x="81.287" y="253.511" width="27.096" height="18.064" fill="#fe5634" data-original="#000000" style=""/>
	</g>
</g>
<g xmlns="http://www.w3.org/2000/svg">
	<g>
		
			<rect x="99.333" y="333.008" transform="matrix(0.8661 -0.4999 0.4999 0.8661 -155.5525 103.4056)" width="31.793" height="18.064" fill="#fe5634" data-original="#000000" style=""/>
	</g>
</g>
<g xmlns="http://www.w3.org/2000/svg">
	<g>
		
			<rect x="157.509" y="391.126" transform="matrix(0.4999 -0.8661 0.8661 0.4999 -259.8506 350.3065)" width="31.793" height="18.064" fill="#fe5634" data-original="#000000" style=""/>
	</g>
</g>
<g xmlns="http://www.w3.org/2000/svg">
	<g>
		<rect x="104.977" y="465.994" transform="matrix(0.5 -0.866 0.866 0.5 -345.7306 351.2195)" width="52.655" height="18.063" fill="#fe5634" data-original="#000000" style=""/>
	</g>
</g>
<g xmlns="http://www.w3.org/2000/svg">
	<g>
		
			<rect x="366.21" y="448.709" transform="matrix(0.8661 -0.4999 0.4999 0.8661 -187.2178 251.194)" width="18.064" height="52.657" fill="#fe5634" data-original="#000000" style=""/>
	</g>
</g>
<g xmlns="http://www.w3.org/2000/svg">
	<g>
		<rect x="243.861" y="407.054" width="18.064" height="27.096" fill="#fe5634" data-original="#000000" style=""/>
	</g>
</g>
<g xmlns="http://www.w3.org/2000/svg">
	<g>
		
			<rect x="323.361" y="384.328" transform="matrix(0.866 -0.5001 0.5001 0.866 -155.5983 219.8659)" width="18.064" height="31.793" fill="#fe5634" data-original="#000000" style=""/>
	</g>
</g>
<g xmlns="http://www.w3.org/2000/svg">
	<g>
		
			<rect x="381.535" y="326.153" transform="matrix(0.5001 -0.866 0.866 0.5001 -100.9567 509.2167)" width="18.064" height="31.793" fill="#fe5634" data-original="#000000" style=""/>
	</g>
</g>
<g xmlns="http://www.w3.org/2000/svg">
	<g>
		<rect x="397.403" y="253.511" width="27.096" height="18.064" fill="#fe5634" data-original="#000000" style=""/>
	</g>
</g>
<g xmlns="http://www.w3.org/2000/svg">
	<g>
		
			<rect x="374.67" y="174.053" transform="matrix(0.8661 -0.4999 0.4999 0.8661 -39.221 219.7583)" width="31.793" height="18.064" fill="#fe5634" data-original="#000000" style=""/>
	</g>
</g>
<g xmlns="http://www.w3.org/2000/svg">
	<g>
		
			<rect x="316.478" y="115.822" transform="matrix(0.4999 -0.8661 0.8661 0.4999 58.088 350.3054)" width="31.793" height="18.064" fill="#fe5634" data-original="#000000" style=""/>
	</g>
</g>
<g xmlns="http://www.w3.org/2000/svg">
	<g>
		<path d="M150.896,39.392c-28.414-28.423-74.676-28.423-103.09,0L29.742,57.456c-28.423,28.423-28.423,74.667,0,103.09    c1.761,1.761,4.073,2.646,6.385,2.646c2.312,0,4.624-0.885,6.386-2.646L150.896,52.163    C154.427,48.632,154.427,42.924,150.896,39.392z M36.651,140.857c-15.291-21.397-13.34-51.428,5.862-70.629l18.064-18.064    C71.271,41.47,85.306,36.132,99.351,36.132c11.181,0,22.372,3.387,31.855,10.17L36.651,140.857z" fill="#fe5634" data-original="#000000" style=""/>
	</g>
</g>
<g xmlns="http://www.w3.org/2000/svg">
	<g>
		<path d="M475.403,57.456l-18.064-18.064c-28.414-28.414-74.667-28.423-103.09,0c-1.698,1.689-2.646,3.992-2.646,6.385    c0,2.393,0.948,4.697,2.646,6.386l108.383,108.383c1.761,1.761,4.073,2.646,6.386,2.646c2.312,0,4.624-0.885,6.386-2.646    c13.765-13.765,21.351-32.072,21.351-51.545S489.167,71.221,475.403,57.456z M468.493,140.866l-94.564-94.564    c21.415-15.291,51.419-13.34,70.629,5.862l18.064,18.064c10.369,10.36,16.068,24.124,16.068,38.774    C478.69,120.589,475.114,131.635,468.493,140.866z" fill="#fe5634" data-original="#000000" style=""/>
	</g>
</g>
<g xmlns="http://www.w3.org/2000/svg">
	<g>
		<path d="M18.064,307.694L0,307.703c0,2.809,0.47,69.04,41.122,89.371l8.084-16.158C18.533,365.579,18.064,308.272,18.064,307.694z    " fill="#fe5634" data-original="#000000" style=""/>
	</g>
</g>
<g xmlns="http://www.w3.org/2000/svg">
	<g>
		<rect y="271.575" width="18.064" height="18.064" fill="#fe5634" data-original="#000000" style=""/>
	</g>
</g>
<g xmlns="http://www.w3.org/2000/svg">
	<g>
		<path d="M494.948,193.901l-14.487,10.784c0.244,0.334,24.178,34.249,7.533,100.823l17.522,4.38    C524.41,234.337,496.158,195.518,494.948,193.901z" fill="#fe5634" data-original="#000000" style=""/>
	</g>
</g>
<g xmlns="http://www.w3.org/2000/svg">
	<g>
		
			<rect x="473.088" y="325.79" transform="matrix(0.4472 -0.8944 0.8944 0.4472 -32.3756 617.2585)" width="20.195" height="18.063" fill="#fe5634" data-original="#000000" style=""/>
	</g>
</g>
<g xmlns="http://www.w3.org/2000/svg">
</g>
<g xmlns="http://www.w3.org/2000/svg">
</g>
<g xmlns="http://www.w3.org/2000/svg">
</g>
<g xmlns="http://www.w3.org/2000/svg">
</g>
<g xmlns="http://www.w3.org/2000/svg">
</g>
<g xmlns="http://www.w3.org/2000/svg">
</g>
<g xmlns="http://www.w3.org/2000/svg">
</g>
<g xmlns="http://www.w3.org/2000/svg">
</g>
<g xmlns="http://www.w3.org/2000/svg">
</g>
<g xmlns="http://www.w3.org/2000/svg">
</g>
<g xmlns="http://www.w3.org/2000/svg">
</g>
<g xmlns="http://www.w3.org/2000/svg">
</g>
<g xmlns="http://www.w3.org/2000/svg">
</g>
<g xmlns="http://www.w3.org/2000/svg">
</g>
<g xmlns="http://www.w3.org/2000/svg">
</g>
</g></svg>
